<svg xmlns="http://www.w3.org/2000/svg" xmlns:xlink="http://www.w3.org/1999/xlink" id="Layer_1" x="0px" y="0px" viewBox="0 0 165.5 56" xml:space="preserve"><g>	<path fill="#0B476C" d="M12.6,2.3v2.8H3.7v6.2h6.9V14H3.7v9.2H0.3V2.3H12.6z"></path>	<path fill="#0B476C" d="M14.3,10.4c0.7-1.3,1.6-2.3,2.8-3c1.2-0.7,2.5-1.1,4-1.1c1.3,0,2.4,0.3,3.4,0.8c1,0.5,1.8,1.2,2.3,1.9V6.6  h3.5v16.6h-3.5v-2.5c-0.6,0.8-1.4,1.4-2.4,2c-1,0.5-2.2,0.8-3.4,0.8c-1.4,0-2.7-0.4-3.9-1.1c-1.2-0.7-2.1-1.8-2.8-3.1  c-0.7-1.3-1-2.8-1-4.5C13.3,13.2,13.6,11.7,14.3,10.4z M26.2,11.9c-0.5-0.8-1.1-1.5-1.9-1.9c-0.8-0.4-1.6-0.7-2.5-0.7  c-0.9,0-1.7,0.2-2.5,0.6c-0.8,0.4-1.4,1.1-1.9,1.9c-0.5,0.8-0.7,1.8-0.7,3s0.2,2.2,0.7,3c0.5,0.9,1.1,1.5,1.9,2  c0.8,0.5,1.6,0.7,2.5,0.7c0.9,0,1.7-0.2,2.5-0.7c0.8-0.4,1.4-1.1,1.9-1.9c0.5-0.9,0.7-1.9,0.7-3C26.9,13.7,26.7,12.7,26.2,11.9z"></path>	<path fill="#0B476C" d="M56.7,7.1c1,0.5,1.8,1.3,2.4,2.4c0.6,1.1,0.9,2.4,0.9,3.9v9.8h-3.4v-9.3c0-1.5-0.4-2.6-1.1-3.4  c-0.7-0.8-1.8-1.2-3-1.2c-1.3,0-2.3,0.4-3.1,1.2c-0.8,0.8-1.1,1.9-1.1,3.4v9.3h-3.4v-9.3c0-1.5-0.4-2.6-1.1-3.4  c-0.7-0.8-1.8-1.2-3-1.2c-1.3,0-2.3,0.4-3.1,1.2c-0.8,0.8-1.1,1.9-1.1,3.4v9.3h-3.4V6.6h3.4v1.9c0.6-0.7,1.3-1.2,2.1-1.6  c0.9-0.4,1.8-0.6,2.8-0.6c1.3,0,2.5,0.3,3.6,0.8c1,0.6,1.8,1.4,2.4,2.4c0.5-1,1.3-1.8,2.4-2.4c1.1-0.6,2.2-0.9,3.4-0.9  C54.5,6.3,55.6,6.6,56.7,7.1z"></path>	<path fill="#0B476C" d="M62.8,3.8c-0.4-0.4-0.6-0.9-0.6-1.6c0-0.6,0.2-1.1,0.6-1.6C63.2,0.2,63.7,0,64.3,0c0.6,0,1.1,0.2,1.5,0.6  c0.4,0.4,0.6,0.9,0.6,1.6c0,0.6-0.2,1.1-0.6,1.6c-0.4,0.4-0.9,0.6-1.5,0.6C63.7,4.4,63.2,4.2,62.8,3.8z M66,6.6v16.6h-3.4V6.6H66z"></path>	<path fill="#0B476C" d="M72.8,0.9v22.3h-3.4V0.9H72.8z"></path>	<path fill="#0B476C" d="M92.2,6.6L82,31h-3.6l3.4-8.1L75.3,6.6h3.8l4.7,12.7l4.9-12.7H92.2z"></path></g><path fill="#0B476C" d="M99.2,7.2c1-1.6,2.3-2.9,3.9-3.8c1.6-0.9,3.4-1.4,5.4-1.4c2.2,0,4.2,0.5,6,1.6c1.7,1.1,3,2.6,3.8,4.7H114 c-0.5-1.1-1.3-1.9-2.3-2.5c-1-0.5-2.1-0.8-3.3-0.8c-1.4,0-2.6,0.3-3.7,0.9c-1.1,0.6-1.9,1.5-2.5,2.7c-0.6,1.2-0.9,2.5-0.9,4.1 c0,1.5,0.3,2.9,0.9,4.1c0.6,1.2,1.5,2.1,2.5,2.7c1.1,0.6,2.3,0.9,3.7,0.9c1.3,0,2.4-0.3,3.3-0.8c1-0.5,1.7-1.4,2.3-2.5h4.1 c-0.8,2-2,3.6-3.8,4.6c-1.7,1.1-3.7,1.6-6,1.6c-2,0-3.8-0.5-5.4-1.4c-1.6-0.9-2.9-2.2-3.9-3.8c-1-1.6-1.4-3.5-1.4-5.5 S98.2,8.8,99.2,7.2z"></path><path fill="#0B476C" d="M121.5,10.4c0.7-1.3,1.6-2.3,2.8-3c1.2-0.7,2.5-1.1,4-1.1c1.3,0,2.4,0.3,3.4,0.8c1,0.5,1.8,1.2,2.3,1.9V6.6 h3.5v16.6H134v-2.5c-0.6,0.8-1.4,1.4-2.4,2c-1,0.5-2.2,0.8-3.4,0.8c-1.4,0-2.7-0.4-3.9-1.1c-1.2-0.7-2.1-1.8-2.8-3.1 c-0.7-1.3-1-2.8-1-4.5C120.4,13.2,120.8,11.7,121.5,10.4z M133.3,11.9c-0.5-0.8-1.1-1.5-1.9-1.9c-0.8-0.4-1.6-0.7-2.5-0.7 c-0.9,0-1.7,0.2-2.5,0.6c-0.8,0.4-1.4,1.1-1.9,1.9c-0.5,0.8-0.7,1.8-0.7,3s0.2,2.2,0.7,3c0.5,0.9,1.1,1.5,1.9,2 c0.8,0.5,1.6,0.7,2.5,0.7c0.9,0,1.7-0.2,2.5-0.7c0.8-0.4,1.4-1.1,1.9-1.9c0.5-0.9,0.7-1.9,0.7-3C134,13.7,133.8,12.7,133.3,11.9z"></path><path fill="#0B476C" d="M145.6,7c0.8-0.5,1.8-0.7,3-0.7v3.6h-0.9c-1.3,0-2.4,0.3-3.1,1c-0.7,0.7-1,1.9-1,3.6v8.7h-3.4V6.6h3.4V9 C144.1,8.2,144.8,7.5,145.6,7z"></path><path fill="#0B476C" d="M165.4,16.2h-12.7c0.1,1.3,0.6,2.4,1.5,3.2c0.9,0.8,2,1.2,3.3,1.2c1.8,0,3.2-0.8,3.9-2.3h3.7 c-0.5,1.5-1.4,2.8-2.7,3.8c-1.3,1-2.9,1.5-4.9,1.5c-1.6,0-3-0.4-4.3-1.1c-1.3-0.7-2.2-1.7-3-3c-0.7-1.3-1.1-2.8-1.1-4.5 s0.3-3.2,1-4.5c0.7-1.3,1.7-2.3,2.9-3c1.3-0.7,2.7-1.1,4.3-1.1c1.6,0,3,0.3,4.2,1c1.2,0.7,2.2,1.6,2.9,2.9c0.7,1.2,1,2.7,1,4.3 C165.5,15.1,165.5,15.7,165.4,16.2z M161.9,13.4c0-1.3-0.5-2.3-1.4-3c-0.9-0.8-2-1.1-3.3-1.1c-1.2,0-2.2,0.4-3,1.1 c-0.8,0.8-1.3,1.8-1.5,3.1H161.9z"></path><path fill="#D78327" d="M103.1,27.2c0,3.8-4.8,8.9-7.2,8.9c-0.9,0-1.3-0.3-1.3-0.9c0-0.5,0.2-1.3,1.6-1.6c1.9-0.4,4.5-3.8,4.5-6.4 c0-0.7-0.4-1.3-1.3-1.3C93.3,25.9,81,37.4,80.9,47.1c0,2.5,1.4,4.4,3.6,4.4c6.2,0.1,12.8-6.7,15.6-10.4c0.6-0.8,1.1-1.4,1.7-1.4 c0.5,0,0.8,0.2,0.8,0.7c0,0.5-0.3,0.8-0.8,1.4c-3.7,4.2-11,11.9-17.4,11.8c-3.7,0-6-2.3-5.9-6.4C78.6,36,91.8,24,99.6,24 C101.7,24,103.2,25,103.1,27.2z"></path><path fill="#D78327" d="M114,40.8c0.5,0,0.9,0.3,0.9,0.9c0,0.6-0.3,1-1,1.9c-2.7,3.3-7.4,8.2-13.7,8.1c-1.9,0-3.5-1.5-3.4-4 c0-0.3-0.3-0.5-0.3-1.1c0-0.6,0.5-1.3,1.1-1.4c2.2-5.1,6.2-7.5,9.1-7.5c1.2,0,2.5,0.9,2.5,2.2c0,3-4.8,6.3-8.6,7.1 c-0.7,0.2-1,0.6-1,1c0,0.5,0.5,1.5,1.6,1.6c4.8,0,8.7-4.3,10.7-6.8C112.6,41.7,113.3,40.8,114,40.8z M100.4,44.8 c2.1-0.4,6-3.1,6-4.1c0-0.3-0.1-0.6-0.5-0.6C104.6,40.1,101.5,43.1,100.4,44.8z"></path><path fill="#D78327" d="M134.7,41c0.5,0,0.9,0.3,0.9,0.9c0,0.6-0.3,1-1,1.9c-2.7,3.2-6.5,7.5-9.3,7.5c-2.9,0-3.3-2.7-3.3-5.2 c0-1.3,0.4-3,0.4-4.3c0-0.3-0.2-0.6-0.5-0.6c-1.6,0-7.1,6-8.4,7.8c-0.6,0.7-1.1,3.2-2.1,3.2c-1,0-1.9-0.4-1.9-1.6 c0-1.4,2.3-7.3,3.4-10.6c0.8-2.6,1.2-3.4,2.7-3.4c0.4,0,1.2,0.4,1.2,1.2c0,0.8-0.2,1.3-0.8,2.9c-0.4,0.9-1.1,3.4-1.2,3.8 c1.8-2,6-6.5,8.5-6.4c1.3,0,2.2,0.8,2.2,2.2c0,1.7-0.4,3.4-0.4,5.4c0,1.8,0.1,3.3,1.2,3.3c1.3,0,4.5-3.4,6.4-6 C133.3,41.9,134.1,41,134.7,41z"></path><path fill="#D78327" d="M135.8,34.2c0.5,0,1,0,1.5-0.2c2-3.5,3-5.3,4-6.7c1-1.4,1.7-2,2.5-2c1,0,1.4,0.5,1.4,1.3 c0,0.7-0.2,1.2-1.4,2.1c-0.8,0.6-1.2,1.4-2.8,4.3c1-0.3,2.1-0.5,3.3-0.5c2.1,0,3.1,0.6,3.1,1.9c0,1.1-0.9,2.4-1.8,2.4 c-0.7,0-0.9-0.3-0.9-0.7c0-0.3,0.1-0.5,0.1-0.8c0-0.2-0.5-0.5-1.2-0.5c-1.1,0-3,0.4-4.5,0.9c-3.2,5.6-6.3,12.3-6.4,15.2 c0,0.5,0.4,1.1,0.4,1.4c0,0.5-0.5,1.3-1.4,1.3c-1,0-1.6-0.8-1.6-2.4c0-3,2.9-9.5,5.5-14.6c-2.7,0-3.4-0.4-3.4-1.3 c0-0.9,0.6-1.7,1.6-1.6C134.7,33.8,135.2,34.2,135.8,34.2z"></path><path fill="#D78327" d="M154.5,41.1c0.5,0,0.9,0.3,0.9,0.9c0,0.6-0.3,1-1,1.9c-2.7,3.3-7.4,8.2-13.7,8.1c-1.9,0-3.5-1.5-3.4-4 c0-0.3-0.3-0.5-0.3-1.1c0-0.6,0.5-1.3,1.1-1.4c2.2-5.1,6.2-7.5,9.1-7.5c1.2,0,2.5,0.9,2.5,2.2c0,3-4.8,6.3-8.6,7.1 c-0.7,0.2-1,0.6-1,1c0,0.5,0.5,1.5,1.6,1.6c4.8,0,8.7-4.3,10.7-6.8C153.1,42,153.9,41.1,154.5,41.1z M140.9,45.1 c2.1-0.4,6-3.1,6-4.1c0-0.3-0.1-0.6-0.5-0.6C145.1,40.4,142,43.4,140.9,45.1z"></path><path fill="#D78327" d="M156.9,38.8c0,0.4-0.5,1.7-1,3c2.4-2.4,4.5-4.2,6-4.2c1.3,0,2.2,0.8,2.2,2.2c0,1.9-0.5,3.6-2.1,3.6 c-0.6,0-1.1-0.5-1.1-1.2c0-0.5,0.4-1.3,0.4-1.5c0-0.2-0.1-0.3-0.3-0.3c-0.7,0-4.4,3.4-6.3,6.2c-0.5,0.7-1.2,2-1.7,3.2 c-0.5,1.1-1,2.2-1.3,2.2c-0.7,0-1.5-0.6-1.5-1.4c0-0.6,0.8-3,1.8-5.1c1-2.3,1.8-4.4,2.1-5.4c0.5-1.5,0.9-2.3,1.8-2.3 C156.4,37.7,156.9,38.1,156.9,38.8z"></path><ellipse transform="matrix(6.831292e-02 -0.9977 0.9977 6.831292e-02 18.3121 84.7459)" fill="#0B476C" cx="54.5" cy="32.6" rx="2.9" ry="2.6"></ellipse><ellipse transform="matrix(0.9968 -8.045002e-02 8.045002e-02 0.9968 -2.396 2.4467)" fill="#0B476C" cx="29.2" cy="31" rx="3" ry="3.3"></ellipse><path fill="#0B476C" d="M29.2,35.3c0,0-4.1,0.1-7.5-1c-3-1-4.9-2.3-5.1-2.1c-0.2,0.2,1.4,1.6,4.8,3.1c2.1,0.9,3.2,1.2,4,1.5 s0.8,0.3,0.7,0.7c0,0-0.2,2.2-1.3,6.5c-1.1,4.4-1.9,7.7-2.1,8.7c-0.2,1-0.8,3-0.1,3.1c0.7,0.1,1.6-1.1,3-4.4 c1.4-3.3,2.5-6.6,2.9-6.7c0.5,0,1.8,4.6,2.3,6.5c0.5,1.9,0.8,3.7,1.4,3.7c0.6,0,0.7-0.6,0.9-3.2c0.2-2.6,0.1-5.9-0.2-8.7 c-0.3-2.8-0.6-4.6-0.8-5.2c-0.1-0.4,0-0.6,0.6-0.7c0.7-0.1,4.5-0.9,6.4-1.6c1.5-0.6,0.8-1.8,0.8-1.8s-0.4-0.8-1.8-0.2 C36.9,33.9,34,35.2,29.2,35.3z"></path><path fill="#0B476C" d="M45.9,36.1c0,0,3.2,0.9,8.3,0.3c5.1-0.7,7.6-2,8.9-2.9c1.6-1.2,1.6-0.8,1.2-0.4c-0.4,0.4-1.8,1.9-3.4,2.9 c-1.6,1-3.6,1.7-3.6,1.7s-0.3,0.1-0.3,0.4c0,0.4-0.2,3.4,0.8,7.8c1,4.4,2.2,9.3,1.2,9.6c-1,0.3-1.7-2.5-2.6-5.6 c-0.9-3.1-1.6-4.3-2-4.3s-0.7,1.3-1.2,3c-0.5,1.7-2.1,6.5-3.2,6.4c-1.1-0.1-0.3-2.2,0.3-5.2c0.6-3,2.3-10.8,2.3-10.8 s0.2-0.5-0.4-0.5c-0.5,0.1-1.6,0.2-4.3-0.1c-2.7-0.3-3.3-0.9-3.3-1.6C44.8,35.9,45.9,36.1,45.9,36.1z"></path><path fill="#0B476C" d="M41,39.8c1,0,1.9,0.9,1.9,2c0,1-0.7,2.1-1.9,2.1c-1.2,0-1.9-1.1-1.9-2.1C39.1,40.8,39.9,39.8,41,39.8z"></path><path fill="#0B476C" d="M46.9,42.6c-0.2,0.5-0.5,1-0.9,1.3c-0.7,0.6-1.3,1-2.5,1.5c-0.3,0.1-0.3,0.1-0.3,0.4c0,0.4,0.1,0.5,0.2,1 c0.3,1.2,0.6,2.3,0.9,3.6c0.2,0.8,0.4,1.6,0.5,2.4c0.1,0.6,0.1,0.9,0,1.4c-0.1,0.3-0.3,0.6-0.6,0.7c-0.3,0.1-0.6-0.1-0.8-0.4 c-0.2-0.3-0.2-0.4-0.3-0.7c-0.6-1.4-1-2.7-1.5-4.1c0-0.1,0-0.2-0.1-0.2c0-0.1-0.1-0.1-0.2-0.1c-0.1,0-0.1,0.1-0.2,0.1 c0,0.1,0,0.2-0.1,0.2c-0.3,1.2-0.6,2.3-1.1,3.4c-0.2,0.4-0.4,0.9-0.7,1.2c0,0-0.1,0.1-0.1,0.1c-0.4,0.4-1,0.3-1.2-0.2 c-0.1-0.3-0.2-0.6-0.2-0.9c0-0.6,0.1-1.2,0.2-1.7c0.3-1.4,0.6-2.7,1-4.1c0.1-0.4,0.2-0.7,0.3-1.1c0-0.1,0.1-0.2,0.1-0.3 c0-0.1-0.1-0.2-0.2-0.2c-1-0.1-1.4-0.3-2.3-0.6c-0.1,0-0.1,0-0.2-0.1c0,0,0,0,0,0C36.1,45,36,44.7,36,44.4c0.1-0.3,0.4-0.4,0.7-0.3 c0,0,0.1,0,0.1,0c0,0,0.1,0,0.1,0c1,0.3,1.9,0.5,2.9,0.6c1,0,2,0,2.9-0.2c1.2-0.3,2.4-0.8,3.4-1.6C46.5,42.7,46.6,42.5,46.9,42.6 C46.9,42.6,46.9,42.6,46.9,42.6z"></path></svg>